<svg width="1200" height="266" viewBox="0 0 1200 266" fill="none" xmlns="http://www.w3.org/2000/svg">
<path d="M238.202 261.932V3.00019" stroke="white" stroke-width="5" stroke-linecap="round"/>
<path d="M13.7782 226.86L114.164 219.199V239.779C114.164 258.111 94.6397 269.844 78.4519 261.239L13.7782 226.86Z" fill="#622C8E"/>
<path d="M70.0468 181.158C68.5674 181.158 31.918 211.802 13.7782 227.124L149.827 218.142C123.85 205.814 71.5262 181.158 70.0468 181.158Z" fill="#69519F"/>
<path d="M175.187 7.86101L114.164 118.285L168.583 212.066L175.187 7.86101Z" fill="#8AC738"/>
<path d="M113.899 232.143V118.285L167.348 206.058C169.674 209.878 168.622 214.848 164.948 217.399L104.125 259.617C112.555 253.112 114.267 246.705 113.899 232.143Z" fill="#18A3BD"/>
<path d="M0.00833471 131.907L1.89042 220.784L51.8189 82.3575L20.4443 98.0448C7.66203 104.436 -0.294231 117.619 0.00833471 131.907Z" fill="#AC2768"/>
<path d="M1.62625 219.991L57.1024 174.553V69.6772L52.0831 74.6965L1.62625 219.991Z" fill="#D02155"/>
<path d="M10.6081 105.34L76.6511 127.531L70.6603 57.986C70.624 57.5645 70.1317 57.3545 69.8023 57.62L10.6081 105.34Z" fill="#FC6F4B"/>
<path d="M70.0468 57.5253L76.6511 127.531L121.096 80.3244C122.272 79.0748 121.958 77.0491 120.452 76.227C102.739 66.5621 90.9671 63.012 70.0468 57.5253Z" fill="#FDC441"/>
<path d="M321.208 224.93V39.6018H379.335C395.843 39.6018 410.527 43.3379 423.386 50.8101C436.245 58.2823 446.237 68.7086 453.362 82.089C460.66 95.4695 464.309 110.588 464.309 127.444V136.567C464.309 153.422 460.747 168.627 453.622 182.182C446.671 195.562 436.766 206.075 423.907 213.721C411.222 221.193 396.625 224.93 380.117 224.93H321.208ZM361.61 71.1414V193.39H379.335C393.41 193.39 404.184 188.524 411.656 178.793C419.302 169.062 423.125 154.986 423.125 136.567V127.965C423.125 109.371 419.389 95.2957 411.917 85.7382C404.445 76.007 393.671 71.1414 379.595 71.1414H361.61Z" fill="white"/>
<path d="M529.066 224.93H489.968V87.3022H529.066V224.93ZM487.622 51.3314C487.622 45.5969 489.62 40.992 493.617 37.5165C497.614 33.8673 502.914 32.0427 509.517 32.0427C515.947 32.0427 521.16 33.8673 525.157 37.5165C529.327 41.1657 531.412 45.8576 531.412 51.5921C531.412 57.3265 529.327 62.0184 525.157 65.6676C521.16 69.143 515.947 70.8808 509.517 70.8808C502.914 70.8808 497.614 69.143 493.617 65.6676C489.62 62.0184 487.622 57.2397 487.622 51.3314Z" fill="white"/>
<path d="M615.489 197.3C621.918 197.3 627.045 195.475 630.868 191.826C634.864 188.003 636.95 183.051 637.123 176.969H673.616C673.616 186.526 671.096 195.128 666.056 202.774C661.191 210.42 654.414 216.502 645.725 221.02C637.037 225.364 627.132 227.536 616.01 227.536C596.2 227.536 580.561 221.28 569.092 208.769C557.797 196.083 552.149 178.706 552.149 156.637V154.291C552.149 141.085 554.582 129.268 559.447 118.842C564.313 108.242 571.525 99.9007 581.082 93.8186C590.639 87.7366 602.282 84.6956 616.01 84.6956C633.387 84.6956 647.289 89.6481 657.715 99.5531C668.142 109.284 673.442 122.404 673.616 138.912H637.123C636.95 131.44 634.864 125.619 630.868 121.448C626.871 117.104 621.571 114.932 614.967 114.932C606.974 114.932 601.066 118.147 597.243 124.576C593.42 130.832 591.421 140.65 591.248 154.031V157.94C591.074 171.842 592.985 181.921 596.982 188.177C600.979 194.259 607.148 197.3 615.489 197.3Z" fill="white"/>
<path d="M772.792 224.93C771.228 221.975 769.925 217.718 768.882 212.157C760.193 222.41 748.724 227.536 734.475 227.536C725.787 227.536 717.88 225.798 710.755 222.323C703.631 218.674 697.983 213.721 693.812 207.465C689.816 201.036 687.817 193.998 687.817 186.352C687.817 171.582 693.291 160.373 704.239 152.727C715.186 144.908 731.087 140.998 751.939 140.998H767.318V132.917C767.318 126.314 765.667 121.275 762.366 117.799C759.238 114.324 754.546 112.586 748.29 112.586C742.556 112.586 738.037 113.976 734.736 116.757C731.608 119.537 730.044 123.534 730.044 128.747H691.206C691.206 120.406 693.726 112.934 698.765 106.33C703.804 99.5531 710.842 94.2531 719.878 90.4301C728.914 86.6071 739.08 84.6956 750.375 84.6956C767.579 84.6956 781.133 88.953 791.038 97.4679C800.943 105.809 806.069 117.278 806.417 131.875V193.39C806.59 205.902 808.415 215.72 811.891 222.844V224.93H772.792ZM743.598 199.124C748.985 199.124 753.764 197.908 757.934 195.475C762.279 192.869 765.407 189.654 767.318 185.831V162.632H753.503C735.778 162.632 726.916 169.67 726.916 183.746C726.916 188.437 728.393 192.174 731.347 194.954C734.475 197.734 738.559 199.124 743.598 199.124Z" fill="white"/>
<path d="M913.073 122.491C910.466 121.796 905.861 121.448 899.258 121.448C885.356 121.448 876.32 126.227 872.149 135.785V224.93H833.051V87.3022H870.064L871.107 104.766C878.405 91.3858 888.658 84.6956 901.864 84.6956C906.382 84.6956 910.292 85.2169 913.594 86.2596L913.073 122.491Z" fill="white"/>
<path d="M921.754 155.073C921.754 133.352 926.532 116.235 936.09 103.724C945.821 91.0383 959.028 84.6956 975.71 84.6956C988.917 84.6956 999.691 89.6481 1008.03 99.5531V29.4361H1047.13V224.93H1011.94L1010.12 210.072C1001.25 221.715 989.699 227.536 975.449 227.536C964.675 227.536 955.205 224.669 947.038 218.934C939.044 213.2 932.788 204.859 928.27 193.911C923.926 182.964 921.754 170.018 921.754 155.073ZM960.852 157.68C960.852 170.539 962.938 180.357 967.108 187.134C971.279 193.738 977.361 197.039 985.354 197.039C996.128 197.039 1003.69 192.521 1008.03 183.485V128.747C1003.69 119.711 996.215 115.193 985.615 115.193C977.969 115.193 972.061 118.234 967.89 124.316C963.72 130.224 961.374 138.999 960.852 150.642V157.68Z" fill="white"/>
<path d="M1068.63 154.813C1068.28 142.127 1070.54 130.485 1075.41 119.884C1080.44 109.111 1087.92 100.596 1097.82 94.34C1107.9 87.9104 1120.06 84.6956 1134.31 84.6956C1147.52 84.6956 1159.08 87.6497 1168.98 93.558C1178.89 99.2925 1186.53 107.547 1191.92 118.32C1197.31 128.921 1200 141.432 1200 155.855V157.419C1200 171.668 1197.31 184.093 1191.92 194.693C1186.53 205.12 1178.89 213.2 1168.98 218.934C1159.08 224.669 1147.61 227.536 1134.57 227.536C1121.72 227.536 1110.42 224.843 1100.69 219.456C1090.96 214.069 1083.31 206.336 1077.75 196.257C1072.19 186.178 1069.24 174.449 1068.89 161.068L1068.63 154.813ZM1107.73 157.419C1107.73 170.626 1109.99 180.618 1114.5 187.395C1119.2 193.998 1125.89 197.3 1134.57 197.3C1143.09 197.3 1149.61 193.998 1154.12 187.395C1158.82 180.791 1161.16 171.234 1161.16 158.722V154.813C1161.16 141.953 1158.82 132.135 1154.12 125.358C1149.61 118.407 1143 114.932 1134.31 114.932C1126.15 114.932 1119.8 117.973 1115.29 124.055C1110.77 130.137 1108.25 139.086 1107.73 150.903V157.419Z" fill="white"/>
</svg>
