<svg width="300" height="300" viewBox="0 0 300 300" fill="none" xmlns="http://www.w3.org/2000/svg">
<path d="M63.5833 256.384L181.105 247.415V271.508C181.105 292.971 158.249 306.706 139.298 296.632L63.5833 256.384Z" fill="#622C8E"/>
<path d="M129.458 202.88C127.726 202.88 84.8198 238.755 63.5833 256.693L222.857 246.178C192.445 231.745 131.189 202.88 129.458 202.88Z" fill="#69519F"/>
<path d="M252.546 0L181.105 129.274L244.815 239.065L252.546 0Z" fill="#8AC738"/>
<path d="M180.796 262.569V129.274L243.368 232.031C246.092 236.503 244.86 242.322 240.559 245.308L169.353 294.733C179.223 287.118 181.227 279.617 180.796 262.569Z" fill="#18A3BD"/>
<path d="M47.4629 145.222L49.6663 249.27L108.118 87.2137L71.3875 105.579C56.4231 113.061 47.1087 128.495 47.4629 145.222Z" fill="#AC2768"/>
<path d="M49.357 248.343L114.303 195.148V72.3689L108.427 78.245L49.357 248.343Z" fill="#D02155"/>
<path d="M59.8721 114.12L137.189 140.099L130.176 58.6818C130.133 58.1883 129.557 57.9425 129.171 58.2533L59.8721 114.12Z" fill="#FC6F4B"/>
<path d="M129.458 58.1425L137.189 140.099L189.221 84.8335C190.598 83.3707 190.231 80.9991 188.467 80.0368C167.731 68.7219 153.949 64.5659 129.458 58.1425Z" fill="#FDC441"/>
</svg>
